<?xml version="1.0" encoding="UTF-8" standalone="no"?>
<!DOCTYPE svg PUBLIC "-//W3C//DTD SVG 1.1//EN"
 "http://www.w3.org/Graphics/SVG/1.1/DTD/svg11.dtd">
<!-- Generated by graphviz version 2.50.0 (0)
 -->
<!-- Title: classes_qmmmeda Pages: 1 -->
<svg width="1607pt" height="908pt"
 viewBox="0.00 0.00 1607.00 908.24" xmlns="http://www.w3.org/2000/svg" xmlns:xlink="http://www.w3.org/1999/xlink">
<g id="graph0" class="graph" transform="scale(1 1) rotate(0) translate(4 904.24)">
<title>classes_qmmmeda</title>
<polygon fill="white" stroke="transparent" points="-4,4 -4,-904.24 1603,-904.24 1603,4 -4,4"/>
<!-- ash.interfaces.QMMMEDA.QMMMConfig -->
<g id="node1" class="node">
<title>ash.interfaces.QMMMEDA.QMMMConfig</title>
<polygon fill="none" stroke="black" points="143.5,-567.13 143.5,-755.13 506.5,-755.13 506.5,-567.13 143.5,-567.13"/>
<text text-anchor="start" x="151.5" y="-657.43" font-family="Times,serif" font-size="14.00">QMMMConfig</text>
<polyline fill="none" stroke="black" points="259.5,-567.13 259.5,-755.13 "/>
<text text-anchor="start" x="267.5" y="-739.93" font-family="Times,serif" font-size="14.00">charge : int</text>
<text text-anchor="start" x="267.5" y="-724.93" font-family="Times,serif" font-size="14.00">eda_atm : List[int]</text>
<text text-anchor="start" x="267.5" y="-709.93" font-family="Times,serif" font-size="14.00">eda_charge : List[int]</text>
<text text-anchor="start" x="267.5" y="-694.93" font-family="Times,serif" font-size="14.00">eda_mult : List[int]</text>
<text text-anchor="start" x="267.5" y="-679.93" font-family="Times,serif" font-size="14.00">forcefield : Optional[str]</text>
<text text-anchor="start" x="267.5" y="-664.93" font-family="Times,serif" font-size="14.00">mult : int</text>
<text text-anchor="start" x="267.5" y="-649.93" font-family="Times,serif" font-size="14.00">numcores : int</text>
<text text-anchor="start" x="267.5" y="-634.93" font-family="Times,serif" font-size="14.00">pdbfile : Optional[str]</text>
<text text-anchor="start" x="267.5" y="-619.93" font-family="Times,serif" font-size="14.00">qm_atoms : List[int]</text>
<text text-anchor="start" x="267.5" y="-604.93" font-family="Times,serif" font-size="14.00">qm_theory_full : XEDATheory</text>
<text text-anchor="start" x="267.5" y="-589.93" font-family="Times,serif" font-size="14.00">xmlfiles : Optional[List[str]]</text>
<text text-anchor="start" x="267.5" y="-574.93" font-family="Times,serif" font-size="14.00">xyzfile : Optional[str]</text>
<polyline fill="none" stroke="black" points="485.5,-567.13 485.5,-755.13 "/>
<text text-anchor="start" x="493.5" y="-657.43" font-family="Times,serif" font-size="14.00"> </text>
</g>
<!-- ash.interfaces.QMMMEDA.QMMM_EDA -->
<g id="node3" class="node">
<title>ash.interfaces.QMMMEDA.QMMM_EDA</title>
<polygon fill="none" stroke="black" points="819.5,-133.63 819.5,-576.63 1598.5,-576.63 1598.5,-133.63 819.5,-133.63"/>
<text text-anchor="start" x="827.5" y="-351.43" font-family="Times,serif" font-size="14.00">QMMM_EDA</text>
<polyline fill="none" stroke="black" points="928.5,-133.63 928.5,-576.63 "/>
<text text-anchor="start" x="936.5" y="-561.43" font-family="Times,serif" font-size="14.00">config</text>
<text text-anchor="start" x="936.5" y="-546.43" font-family="Times,serif" font-size="14.00">energy_monomer1 : ASH_Results</text>
<text text-anchor="start" x="936.5" y="-531.43" font-family="Times,serif" font-size="14.00">energy_monomer2 : ASH_Results</text>
<text text-anchor="start" x="936.5" y="-516.43" font-family="Times,serif" font-size="14.00">energy_sup : ASH_Results</text>
<text text-anchor="start" x="936.5" y="-501.43" font-family="Times,serif" font-size="14.00">fragment1 : Fragment</text>
<text text-anchor="start" x="936.5" y="-486.43" font-family="Times,serif" font-size="14.00">fragment2 : Fragment</text>
<text text-anchor="start" x="936.5" y="-471.43" font-family="Times,serif" font-size="14.00">full_fragment : Fragment</text>
<text text-anchor="start" x="936.5" y="-456.43" font-family="Times,serif" font-size="14.00">is_fragment1_mm : bool</text>
<text text-anchor="start" x="936.5" y="-441.43" font-family="Times,serif" font-size="14.00">is_fragment2_mm : bool</text>
<text text-anchor="start" x="936.5" y="-426.43" font-family="Times,serif" font-size="14.00">mm_elec_interaction</text>
<text text-anchor="start" x="936.5" y="-411.43" font-family="Times,serif" font-size="14.00">mm_novdw1 : ASH_Results</text>
<text text-anchor="start" x="936.5" y="-396.43" font-family="Times,serif" font-size="14.00">mm_novdw2 : ASH_Results</text>
<text text-anchor="start" x="936.5" y="-381.43" font-family="Times,serif" font-size="14.00">mm_novdw_full : ASH_Results</text>
<text text-anchor="start" x="936.5" y="-366.43" font-family="Times,serif" font-size="14.00">mm_theory1 : NoneType, OpenMMTheory</text>
<text text-anchor="start" x="936.5" y="-351.43" font-family="Times,serif" font-size="14.00">mm_theory2 : NoneType, OpenMMTheory</text>
<text text-anchor="start" x="936.5" y="-336.43" font-family="Times,serif" font-size="14.00">mm_theory_full : OpenMMTheory</text>
<text text-anchor="start" x="936.5" y="-321.43" font-family="Times,serif" font-size="14.00">mm_without_nonbonded1 : ASH_Results</text>
<text text-anchor="start" x="936.5" y="-306.43" font-family="Times,serif" font-size="14.00">mm_without_nonbonded2 : ASH_Results</text>
<text text-anchor="start" x="936.5" y="-291.43" font-family="Times,serif" font-size="14.00">mm_without_nonbonded_full : ASH_Results</text>
<text text-anchor="start" x="936.5" y="-276.43" font-family="Times,serif" font-size="14.00">pdbfile1 : str</text>
<text text-anchor="start" x="936.5" y="-261.43" font-family="Times,serif" font-size="14.00">pdbfile2 : str</text>
<text text-anchor="start" x="936.5" y="-246.43" font-family="Times,serif" font-size="14.00">qm_atoms1 : list</text>
<text text-anchor="start" x="936.5" y="-231.43" font-family="Times,serif" font-size="14.00">qm_atoms2 : list</text>
<text text-anchor="start" x="936.5" y="-216.43" font-family="Times,serif" font-size="14.00">qm_theory1</text>
<text text-anchor="start" x="936.5" y="-201.43" font-family="Times,serif" font-size="14.00">qm_theory2</text>
<text text-anchor="start" x="936.5" y="-186.43" font-family="Times,serif" font-size="14.00">qmmm_theory1</text>
<text text-anchor="start" x="936.5" y="-171.43" font-family="Times,serif" font-size="14.00">qmmm_theory2</text>
<text text-anchor="start" x="936.5" y="-156.43" font-family="Times,serif" font-size="14.00">qmmm_theory_full</text>
<text text-anchor="start" x="936.5" y="-141.43" font-family="Times,serif" font-size="14.00">vdw_interaction</text>
<polyline fill="none" stroke="black" points="1254.5,-133.63 1254.5,-576.63 "/>
<text text-anchor="start" x="1262.5" y="-400.93" font-family="Times,serif" font-style="italic" font-size="14.00">bsse_mono_cal</text>
<text text-anchor="start" x="1368.5" y="-400.93" font-family="Times,serif" font-size="14.00">()</text>
<text text-anchor="start" x="1262.5" y="-386.93" font-family="Times,serif" font-style="italic" font-size="14.00">cal_qmmm_elec</text>
<text text-anchor="start" x="1374.5" y="-386.93" font-family="Times,serif" font-size="14.00">()</text>
<text text-anchor="start" x="1262.5" y="-372.93" font-family="Times,serif" font-size="14.00">initialize_fragment()</text>
<text text-anchor="start" x="1262.5" y="-358.93" font-family="Times,serif" font-size="14.00">run()</text>
<text text-anchor="start" x="1262.5" y="-344.93" font-family="Times,serif" font-style="italic" font-size="14.00">run_eda</text>
<text text-anchor="start" x="1320.5" y="-344.93" font-family="Times,serif" font-size="14.00">()</text>
<text text-anchor="start" x="1262.5" y="-330.93" font-family="Times,serif" font-size="14.00">split_fragment(pdbfile, split_indices: List[int])</text>
<text text-anchor="start" x="1262.5" y="-316.93" font-family="Times,serif" font-size="14.00">split_qmatms()</text>
<text text-anchor="start" x="1262.5" y="-302.93" font-family="Times,serif" font-size="14.00">validate_config()</text>
</g>
<!-- ash.interfaces.QMMMEDA.QMMMConfig&#45;&gt;ash.interfaces.QMMMEDA.QMMM_EDA -->
<g id="edge4" class="edge">
<title>ash.interfaces.QMMMEDA.QMMMConfig&#45;&gt;ash.interfaces.QMMMEDA.QMMM_EDA</title>
<path fill="none" stroke="black" d="M506.61,-598.47C593.9,-568.18 702.39,-530.54 807.75,-493.99"/>
<polygon fill="none" stroke="black" points="807.91,-493.93 812.27,-488.19 819.25,-490 814.89,-495.75 807.91,-493.93"/>
<text text-anchor="middle" x="735" y="-542.93" font-family="Times,serif" font-size="14.00" fill="green">config</text>
</g>
<!-- ash.interfaces.QMMMEDA.QMMMTheory_EDA -->
<g id="node2" class="node">
<title>ash.interfaces.QMMMEDA.QMMMTheory_EDA</title>
<polygon fill="none" stroke="black" points="-0.5,-177.63 -0.5,-410.63 650.5,-410.63 650.5,-177.63 -0.5,-177.63"/>
<text text-anchor="start" x="7.5" y="-290.43" font-family="Times,serif" font-size="14.00">QMMMTheory_EDA</text>
<polyline fill="none" stroke="black" points="157.5,-177.63 157.5,-410.63 "/>
<text text-anchor="start" x="165.5" y="-395.43" font-family="Times,serif" font-size="14.00">MMenergy : int</text>
<text text-anchor="start" x="165.5" y="-380.43" font-family="Times,serif" font-size="14.00">MMgradient</text>
<text text-anchor="start" x="165.5" y="-365.43" font-family="Times,serif" font-size="14.00">PCgradient : ndarray</text>
<text text-anchor="start" x="165.5" y="-350.43" font-family="Times,serif" font-size="14.00">QM_MM_energy</text>
<text text-anchor="start" x="165.5" y="-335.43" font-family="Times,serif" font-size="14.00">QM_MM_gradient</text>
<text text-anchor="start" x="165.5" y="-320.43" font-family="Times,serif" font-size="14.00">QMenergy : float</text>
<text text-anchor="start" x="165.5" y="-305.43" font-family="Times,serif" font-size="14.00">QMgradient : ndarray</text>
<text text-anchor="start" x="165.5" y="-290.43" font-family="Times,serif" font-size="14.00">QMgradient_wo_linkatoms : ndarray</text>
<text text-anchor="start" x="165.5" y="-275.43" font-family="Times,serif" font-size="14.00">do_qm : bool</text>
<text text-anchor="start" x="165.5" y="-260.43" font-family="Times,serif" font-size="14.00">extforce_energy</text>
<text text-anchor="start" x="165.5" y="-245.43" font-family="Times,serif" font-size="14.00">linkatoms : bool</text>
<text text-anchor="start" x="165.5" y="-230.43" font-family="Times,serif" font-size="14.00">pointchargecoords : ndarray</text>
<text text-anchor="start" x="165.5" y="-215.43" font-family="Times,serif" font-size="14.00">qm_coords : ndarray</text>
<text text-anchor="start" x="165.5" y="-200.43" font-family="Times,serif" font-size="14.00">runcalls</text>
<text text-anchor="start" x="165.5" y="-185.43" font-family="Times,serif" font-size="14.00">truncPC_E_correction</text>
<polyline fill="none" stroke="black" points="433.5,-177.63 433.5,-410.63 "/>
<text text-anchor="start" x="441.5" y="-290.43" font-family="Times,serif" font-size="14.00">elstat_run( ..., charge, mult)</text>
</g>
<!-- ash.interfaces.QMMMEDA.QMMMTheory_EDA&#45;&gt;ash.interfaces.QMMMEDA.QMMM_EDA -->
<g id="edge1" class="edge">
<title>ash.interfaces.QMMMEDA.QMMMTheory_EDA&#45;&gt;ash.interfaces.QMMMEDA.QMMM_EDA</title>
<path fill="none" stroke="black" d="M650.85,-341.59C656.77,-342.13 662.66,-342.65 668.5,-343.13 713.38,-346.82 760.42,-349.55 807.24,-351.55"/>
<polygon fill="black" stroke="black" points="807.47,-351.56 813.63,-347.81 819.46,-352.06 813.3,-355.81 807.47,-351.56"/>
<text text-anchor="middle" x="735" y="-355.93" font-family="Times,serif" font-size="14.00" fill="green">qmmm_theory_full</text>
</g>
<!-- ash.interfaces.QMMMEDA.QMMMTheory_EDA&#45;&gt;ash.interfaces.QMMMEDA.QMMM_EDA -->
<g id="edge2" class="edge">
<title>ash.interfaces.QMMMEDA.QMMMTheory_EDA&#45;&gt;ash.interfaces.QMMMEDA.QMMM_EDA</title>
<path fill="none" stroke="black" d="M650.56,-314.03C701.1,-317.3 752.71,-320.73 801.5,-324.13 803.44,-324.26 805.39,-324.4 807.34,-324.53"/>
<polygon fill="black" stroke="black" points="807.4,-324.54 813.67,-320.97 819.37,-325.38 813.11,-328.95 807.4,-324.54"/>
<text text-anchor="middle" x="735" y="-327.93" font-family="Times,serif" font-size="14.00" fill="green">qmmm_theory1</text>
</g>
<!-- ash.interfaces.QMMMEDA.QMMMTheory_EDA&#45;&gt;ash.interfaces.QMMMEDA.QMMM_EDA -->
<g id="edge3" class="edge">
<title>ash.interfaces.QMMMEDA.QMMMTheory_EDA&#45;&gt;ash.interfaces.QMMMEDA.QMMM_EDA</title>
<path fill="none" stroke="black" d="M650.76,-290.32C701.27,-291.42 752.82,-293.52 801.5,-297.13 803.45,-297.27 805.41,-297.42 807.38,-297.57"/>
<polygon fill="black" stroke="black" points="807.53,-297.58 813.83,-294.08 819.49,-298.55 813.19,-302.05 807.53,-297.58"/>
<text text-anchor="middle" x="735" y="-300.93" font-family="Times,serif" font-size="14.00" fill="green">qmmm_theory2</text>
</g>
<!-- ash.interfaces.QMMMEDA.XEDA_EB -->
<g id="node4" class="node">
<title>ash.interfaces.QMMMEDA.XEDA_EB</title>
<polygon fill="none" stroke="black" points="263.5,-853.13 263.5,-889.13 386.5,-889.13 386.5,-853.13 263.5,-853.13"/>
<text text-anchor="start" x="271.5" y="-867.53" font-family="Times,serif" font-size="14.00">XEDA_EB</text>
<polyline fill="none" stroke="black" points="349.5,-853.33 349.5,-889.13 "/>
<polyline fill="none" stroke="black" points="365.5,-853.33 365.5,-889.13 "/>
<text text-anchor="start" x="373.5" y="-867.53" font-family="Times,serif" font-size="14.00"> </text>
</g>
</g>
</svg>
